<svg xmlns="http://www.w3.org/2000/svg" width="285" height="39" viewBox="0 0 285 39" fill="none">
  <mask id="path-1-inside-1_87_4" fill="white">
    <path fill-rule="evenodd" clip-rule="evenodd" d="M22.4957 0C10.0717 0 0 10.0717 0 22.4957C0 24.1159 0.239801 25.6801 0.685846 27.1548C1.68163 30.4469 5 27.9394 5 24.5C5 13.1782 14.1782 4 25.5 4C36.8218 4 46 13.1782 46 24.5C46 30.364 50.0517 38.5641 55.9157 38.5641H265.162C275.811 38.5641 284.444 29.9312 284.444 19.2821C284.444 8.63287 275.811 0 265.162 0H22.4957Z"/>
  </mask>
  <path fill-rule="evenodd" clip-rule="evenodd" d="M22.4957 0C10.0717 0 0 10.0717 0 22.4957C0 24.1159 0.239801 25.6801 0.685846 27.1548C1.68163 30.4469 5 27.9394 5 24.5C5 13.1782 14.1782 4 25.5 4C36.8218 4 46 13.1782 46 24.5C46 30.364 50.0517 38.5641 55.9157 38.5641H265.162C275.811 38.5641 284.444 29.9312 284.444 19.2821C284.444 8.63287 275.811 0 265.162 0H22.4957Z" fill="#071C25"/>
  <path d="M0.685846 27.1548L-0.271325 27.4443L0.685846 27.1548ZM1 22.4957C1 10.624 10.624 1 22.4957 1V-1C9.51939 -1 -1 9.5194 -1 22.4957H1ZM1.64302 26.8653C1.22506 25.4835 1 24.0168 1 22.4957H-1C-1 24.2151 -0.745458 25.8768 -0.271325 27.4443L1.64302 26.8653ZM6 24.5C6 13.7304 14.7304 5 25.5 5V3C13.6259 3 4 12.6259 4 24.5H6ZM25.5 5C36.2696 5 45 13.7304 45 24.5H47C47 12.6259 37.3741 3 25.5 3V5ZM265.162 37.5641H55.9157V39.5641H265.162V37.5641ZM283.444 19.2821C283.444 29.3789 275.259 37.5641 265.162 37.5641V39.5641C276.363 39.5641 285.444 30.4835 285.444 19.2821H283.444ZM265.162 1C275.259 1 283.444 9.18516 283.444 19.2821H285.444C285.444 8.08059 276.363 -1 265.162 -1V1ZM22.4957 1H265.162V-1H22.4957V1ZM45 24.5C45 27.6303 46.0716 31.3292 47.9118 34.2625C49.738 37.1735 52.4829 39.5641 55.9157 39.5641V37.5641C53.4846 37.5641 51.2716 35.8546 49.606 33.1996C47.9543 30.5669 47 27.2337 47 24.5H45ZM-0.271325 27.4443C0.0255785 28.4259 0.570301 29.2175 1.41993 29.5454C2.27576 29.8758 3.13047 29.617 3.77658 29.18C5.04542 28.3218 6 26.5006 6 24.5H4C4 25.9388 3.29539 27.091 2.6561 27.5234C2.34815 27.7317 2.18655 27.6975 2.14012 27.6796C2.08749 27.6593 1.844 27.5297 1.64302 26.8653L-0.271325 27.4443Z" fill="#2B5256" mask="url(#path-1-inside-1_87_4)"/>
</svg>